<svg width="60" height="61" viewBox="0 0 60 61" fill="none" xmlns="http://www.w3.org/2000/svg">
<g clip-path="url(#clip0_7_1482)">
<path d="M56 34.5C56 52.5 45 59.5 38 59.5C33 59.5 31 57.5 30 57.5C29 57.5 27 59.5 22 59.5C15 59.5 4 52.5 4 34.5C4 18.5 13 14.5 22 14.5H22.01C24.7311 14.4438 27.4393 14.8879 30 15.81H30.01C32.5707 14.8879 35.2789 14.4438 38 14.5C47 14.5 56 18.5 56 34.5Z" fill="#F44335"/>
<path d="M38 14.5C37.483 14.5 36.99 14.517 36.508 14.541C44.978 14.987 53 19.4 53 34.5C53 51.4 43.309 58.6 36.33 59.419C36.847 59.47 37.4 59.5 38 59.5C45 59.5 56 52.5 56 34.5C56 18.5 47 14.5 38 14.5Z" fill="#C81E1E"/>
<path d="M33.05 17.4199C32.1048 16.7635 31.0841 16.223 30.01 15.8099L33.05 17.4199Z" fill="#F44335"/>
<path d="M30 10.88V15.81C27.4393 14.8878 24.7311 14.4438 22.01 14.5H22C20.7758 14.0538 19.661 13.3515 18.73 12.44C14.99 8.61996 16.24 1.57996 16.24 1.57996C16.24 1.57996 23.56 0.739961 27.31 4.55996C28.8618 6.32325 29.805 8.53916 30 10.88Z" fill="#60A917"/>
<path d="M27.31 4.5599C23.968 1.1599 17.81 1.4519 16.5 1.5599C18.934 1.7349 22.191 2.4049 24.31 4.5599C25.8618 6.32319 26.805 8.5391 27 10.8799V14.9629C28.0221 15.1601 29.0257 15.4434 30 15.8099V10.8799C29.805 8.5391 28.8618 6.32319 27.31 4.5599Z" fill="#549414"/>
<path d="M8.233 31.5C8.19086 31.5003 8.14876 31.4977 8.107 31.492C7.84374 31.4591 7.60437 31.3228 7.44157 31.1133C7.27878 30.9038 7.2059 30.6382 7.239 30.375C8.327 21.711 13.155 17.5 22 17.5C22.5523 17.5 23 17.9477 23 18.5C23 19.0523 22.5523 19.5 22 19.5C14.236 19.5 10.176 23.035 9.224 30.625C9.16106 31.1246 8.73651 31.4994 8.233 31.5Z" fill="#F5F5F5"/>
<path d="M8 35.5C8.55228 35.5 9 35.0523 9 34.5C9 33.9477 8.55228 33.5 8 33.5C7.44772 33.5 7 33.9477 7 34.5C7 35.0523 7.44772 35.5 8 35.5Z" fill="#F5F5F5"/>
<path d="M3 34.5C3 53.441 14.654 60.5 22 60.5C24.4824 60.5403 26.9374 59.9771 29.154 58.859C29.4225 58.7213 29.6998 58.6013 29.984 58.5C30.2814 58.5938 30.5699 58.7139 30.846 58.859C33.0626 59.9771 35.5176 60.5403 38 60.5C45.346 60.5 57 53.441 57 34.5C57 17.143 46.667 13.5 38 13.5C35.6334 13.4773 33.2759 13.7955 31 14.445V9.49996C31 7.61896 31 4.11795 34.447 2.39995C34.7668 2.24026 34.977 1.9221 34.9986 1.56534C35.0202 1.20858 34.8498 0.867406 34.5516 0.670341C34.2534 0.473276 33.8728 0.450256 33.553 0.609954C31.4782 1.60908 29.9575 3.4821 29.406 5.71795C29.0245 5.04448 28.5598 4.4216 28.023 3.86395C23.978 -0.261046 16.444 0.548954 16.126 0.585954C15.6869 0.636647 15.3331 0.969666 15.256 1.40495C15.201 1.71295 13.962 9.00496 18.019 13.144C18.212 13.338 18.419 13.52 18.637 13.698C10.872 14.649 3 19.35 3 34.5ZM17.129 2.52095C19.018 2.43995 23.913 2.52695 26.595 5.25895C27.9945 6.84614 28.8387 8.84606 29 10.956V14.44C26.7951 13.8151 24.5137 13.5014 22.222 13.508C21.1847 13.115 20.2392 12.5133 19.444 11.74C16.8 9.03596 16.95 4.35495 17.129 2.52095ZM22 15.5C24.5894 15.4486 27.1667 15.8652 29.608 16.73H29.618L29.648 16.74C30.6468 17.1254 31.5959 17.629 32.475 18.24C32.767 18.4522 33.1508 18.4906 33.4791 18.3404C33.8074 18.1901 34.0292 17.8746 34.0595 17.5148C34.0897 17.155 33.9236 16.8069 33.625 16.604C33.344 16.404 33.051 16.217 32.749 16.037C34.4744 15.6664 36.2353 15.4863 38 15.5C49.28 15.5 55 21.893 55 34.5C55 51.984 44.573 58.5 38 58.5C35.813 58.5405 33.6496 58.0429 31.7 57.051C31.1798 56.7466 30.5998 56.5586 30 56.5C29.4002 56.5586 28.8202 56.7466 28.3 57.051C26.3504 58.0429 24.187 58.5405 22 58.5C15.427 58.5 5 51.984 5 34.5C5 21.893 10.72 15.5 22 15.5Z" fill="black"/>
</g>
<defs>
<clipPath id="clip0_7_1482">
<rect width="60" height="60" fill="white" transform="translate(0 0.5)"/>
</clipPath>
</defs>
</svg>
