<svg width="60" height="61" viewBox="0 0 60 61" fill="none" xmlns="http://www.w3.org/2000/svg">
<g clip-path="url(#clip0_7_1426)">
<path d="M17.5 20.5C19.5711 20.5 21.25 19.3807 21.25 18C21.25 16.6193 19.5711 15.5 17.5 15.5C15.4289 15.5 13.75 16.6193 13.75 18C13.75 19.3807 15.4289 20.5 17.5 20.5Z" fill="#39285E"/>
<path d="M31.25 24.25C31.25 26.9695 30.4436 29.6279 28.9327 31.8891C27.4218 34.1503 25.2744 35.9126 22.7619 36.9533C20.2494 37.994 17.4848 38.2663 14.8175 37.7358C12.1503 37.2053 9.70026 35.8957 7.77729 33.9727C5.85432 32.0497 4.54476 29.5997 4.01421 26.9325C3.48366 24.2653 3.75596 21.5006 4.79666 18.9881C5.83737 16.4756 7.59974 14.3282 9.86092 12.8173C12.1221 11.3064 14.7805 10.5 17.5 10.5C19.306 10.499 21.0944 10.854 22.7631 11.5447C24.4317 12.2353 25.9479 13.2481 27.2249 14.5251C28.5019 15.8021 29.5147 17.3183 30.2054 18.9869C30.896 20.6556 31.251 22.444 31.25 24.25ZM21.25 18C21.25 16.625 19.575 15.5 17.5 15.5C15.425 15.5 13.75 16.625 13.75 18C13.75 19.375 15.425 20.5 17.5 20.5C19.575 20.5 21.25 19.375 21.25 18Z" fill="#6F60BA"/>
<path d="M42.5 29.25C44.5711 29.25 46.25 28.1307 46.25 26.75C46.25 25.3693 44.5711 24.25 42.5 24.25C40.4289 24.25 38.75 25.3693 38.75 26.75C38.75 28.1307 40.4289 29.25 42.5 29.25Z" fill="#39285E"/>
<path d="M42.5 19.25C45.2195 19.25 47.8779 20.0564 50.1391 21.5673C52.4003 23.0782 54.1626 25.2256 55.2033 27.7381C56.244 30.2506 56.5163 33.0153 55.9858 35.6825C55.4553 38.3497 54.1457 40.7997 52.2227 42.7227C50.2997 44.6457 47.8497 45.9553 45.1825 46.4858C42.5153 47.0163 39.7506 46.744 37.2381 45.7033C34.7256 44.6626 32.5782 42.9003 31.0673 40.6391C29.5564 38.3779 28.75 35.7195 28.75 33C28.749 31.194 29.104 29.4056 29.7946 27.7369C30.4853 26.0683 31.4981 24.5521 32.7751 23.2751C34.0521 21.9981 35.5683 20.9853 37.2369 20.2947C38.9056 19.604 40.694 19.249 42.5 19.25ZM46.25 26.75C46.25 25.375 44.575 24.25 42.5 24.25C40.425 24.25 38.75 25.375 38.75 26.75C38.75 28.125 40.425 29.25 42.5 29.25C44.575 29.25 46.25 28.125 46.25 26.75Z" fill="#7E6DD4"/>
<path d="M10 49.25C11.3807 49.25 12.5 47.5711 12.5 45.5C12.5 43.4289 11.3807 41.75 10 41.75C8.61929 41.75 7.5 43.4289 7.5 45.5C7.5 47.5711 8.61929 49.25 10 49.25Z" fill="#39285E"/>
<path d="M17.5 31.75C20.2195 31.75 22.8779 32.5564 25.1391 34.0673C27.4003 35.5782 29.1626 37.7256 30.2033 40.2381C31.244 42.7506 31.5163 45.5153 30.9858 48.1825C30.4553 50.8497 29.1457 53.2997 27.2227 55.2227C25.2997 57.1457 22.8497 58.4553 20.1825 58.9858C17.5153 59.5163 14.7506 59.244 12.2381 58.2033C9.72562 57.1626 7.57816 55.4003 6.06729 53.1391C4.55643 50.8779 3.75 48.2195 3.75 45.5C3.74902 43.694 4.104 41.9056 4.79465 40.2369C5.4853 38.5683 6.49808 37.0521 7.77509 35.7751C9.05209 34.4981 10.5683 33.4853 12.2369 32.7946C13.9056 32.104 15.694 31.749 17.5 31.75ZM12.5 45.5C12.5 43.425 11.375 41.75 10 41.75C8.625 41.75 7.5 43.425 7.5 45.5C7.5 47.575 8.625 49.25 10 49.25C11.375 49.25 12.5 47.575 12.5 45.5Z" fill="#7E6DD4"/>
<path d="M31.25 24.1325C31.6475 24.2125 31.875 24.25 31.875 24.25L31.9088 24.2288C32.1213 23.9713 32.3512 23.7287 32.5825 23.4875C33.4802 21.8453 33.8856 19.9791 33.75 18.1125C33.75 18.1125 33.75 4.8125 20.625 1.75C19.5697 4.57592 18.9787 7.554 18.875 10.5688C22.2475 10.9051 25.3767 12.4761 27.661 14.9799C29.9453 17.4836 31.2236 20.7434 31.25 24.1325Z" fill="#4E8C00"/>
<path d="M42.5 19.25C46.0678 19.2479 49.4955 20.6382 52.0538 23.125C52.9633 22.3274 53.6954 21.348 54.2029 20.2499C54.7103 19.1518 54.9819 17.9595 55 16.75C55 6.75 52.5 1.75 52.5 1.75C48.3105 7.22853 44.6681 13.1045 41.625 19.2938C41.915 19.2763 42.205 19.25 42.5 19.25Z" fill="#63B300"/>
<path d="M52.5 1.75C36.3175 5.2175 35.1 19.3638 35.0087 21.4763C36.9885 20.1893 39.268 19.4374 41.625 19.2938C44.668 13.1045 48.3104 7.22853 52.5 1.75Z" fill="#4E8C00"/>
<path d="M42.5 29.25C44.5711 29.25 46.25 28.1307 46.25 26.75C46.25 25.3693 44.5711 24.25 42.5 24.25C40.4289 24.25 38.75 25.3693 38.75 26.75C38.75 28.1307 40.4289 29.25 42.5 29.25Z" fill="#39285E"/>
<path d="M42.5 19.25C45.2195 19.25 47.8779 20.0564 50.1391 21.5673C52.4003 23.0782 54.1626 25.2256 55.2033 27.7381C56.244 30.2506 56.5163 33.0153 55.9858 35.6825C55.4553 38.3497 54.1457 40.7997 52.2227 42.7227C50.2997 44.6457 47.8497 45.9553 45.1825 46.4858C42.5153 47.0163 39.7506 46.744 37.2381 45.7033C34.7256 44.6626 32.5782 42.9003 31.0673 40.6391C29.5564 38.3779 28.75 35.7195 28.75 33C28.749 31.194 29.104 29.4056 29.7946 27.7369C30.4853 26.0683 31.4981 24.5521 32.7751 23.2751C34.0521 21.9981 35.5683 20.9853 37.2369 20.2947C38.9056 19.604 40.694 19.249 42.5 19.25ZM46.25 26.75C46.25 25.375 44.575 24.25 42.5 24.25C40.425 24.25 38.75 25.375 38.75 26.75C38.75 28.125 40.425 29.25 42.5 29.25C44.575 29.25 46.25 28.125 46.25 26.75Z" fill="#7E6DD4"/>
<path d="M42.5 19.25C39.7805 19.25 37.1221 20.0564 34.8609 21.5673C32.5997 23.0782 30.8374 25.2256 29.7967 27.7381C28.756 30.2506 28.4837 33.0153 29.0142 35.6825C29.5448 38.3497 30.8543 40.7997 32.7773 42.7227C34.7003 44.6457 37.1503 45.9553 39.8175 46.4858C42.4848 47.0163 45.2494 46.744 47.7619 45.7033C50.2744 44.6626 52.4218 42.9003 53.9327 40.6391C55.4436 38.3779 56.25 35.7195 56.25 33C56.251 31.194 55.896 29.4056 55.2054 27.7369C54.5147 26.0683 53.5019 24.5521 52.2249 23.2751C50.9479 21.9981 49.4317 20.9853 47.7631 20.2947C46.0944 19.604 44.306 19.249 42.5 19.25ZM42.5 40.5C35.5913 40.5 30 36.0275 30 30.5C30 24.9725 35.5913 20.5 42.5 20.5C49.4088 20.5 55 24.9725 55 30.5C55 36.0275 49.4088 40.5 42.5 40.5Z" fill="#5F4A9E"/>
<path d="M42.5 31.75C47.3325 31.75 51.25 29.2316 51.25 26.125C51.25 23.0184 47.3325 20.5 42.5 20.5C37.6675 20.5 33.75 23.0184 33.75 26.125C33.75 29.2316 37.6675 31.75 42.5 31.75Z" fill="#9883FF"/>
<path d="M42.5 30.5C45.2614 30.5 47.5 28.8211 47.5 26.75C47.5 24.6789 45.2614 23 42.5 23C39.7386 23 37.5 24.6789 37.5 26.75C37.5 28.8211 39.7386 30.5 42.5 30.5Z" fill="#5F4A9E"/>
<path d="M42.5 29.25C44.5711 29.25 46.25 28.1307 46.25 26.75C46.25 25.3693 44.5711 24.25 42.5 24.25C40.4289 24.25 38.75 25.3693 38.75 26.75C38.75 28.1307 40.4289 29.25 42.5 29.25Z" fill="#39285E"/>
<path d="M42.5 25.5C43.2189 25.4345 43.9415 25.5762 44.5824 25.9085C45.2233 26.2408 45.7555 26.7497 46.1163 27.375C46.1997 27.1769 46.2451 26.9649 46.25 26.75C46.25 25.375 44.575 24.25 42.5 24.25C40.425 24.25 38.75 25.375 38.75 26.75C38.7549 26.9649 38.8003 27.1769 38.8838 27.375C39.2445 26.7497 39.7767 26.2408 40.4176 25.9085C41.0585 25.5762 41.7811 25.4345 42.5 25.5Z" fill="#261647"/>
<path d="M51.9075 28.0062C51.8175 28.0193 51.7299 28.0454 51.6475 28.0837C50.9525 28.3962 50.5425 29.3337 50.0475 29.8825C48.6896 31.3842 46.9141 32.4463 44.9487 32.9325C44.732 32.9501 44.5213 33.0124 44.3298 33.1154C44.1384 33.2184 43.9703 33.36 43.8362 33.5312C43.7534 33.729 43.7375 33.9484 43.791 34.156C43.8444 34.3637 43.9644 34.5481 44.1325 34.6812C44.4742 34.9358 44.8736 35.1019 45.295 35.165C46.8654 35.6032 48.5253 35.6067 50.0975 35.175C50.8505 34.908 51.5408 34.4897 52.126 33.9458C52.7112 33.4019 53.1788 32.744 53.5 32.0125C53.7007 31.5437 53.7757 31.0307 53.7176 30.5241C53.6595 30.0176 53.4703 29.5349 53.1687 29.1237C52.855 28.6062 52.5075 27.9262 51.9075 28.0062Z" fill="#9883FF"/>
<path d="M17.5 20.5C19.5711 20.5 21.25 19.3807 21.25 18C21.25 16.6193 19.5711 15.5 17.5 15.5C15.4289 15.5 13.75 16.6193 13.75 18C13.75 19.3807 15.4289 20.5 17.5 20.5Z" fill="#39285E"/>
<path d="M31.25 24.25C31.25 26.9695 30.4436 29.6279 28.9327 31.8891C27.4218 34.1503 25.2744 35.9126 22.7619 36.9533C20.2494 37.994 17.4848 38.2663 14.8175 37.7358C12.1503 37.2053 9.70026 35.8957 7.77729 33.9727C5.85432 32.0497 4.54476 29.5997 4.01421 26.9325C3.48366 24.2653 3.75596 21.5006 4.79666 18.9881C5.83737 16.4756 7.59974 14.3282 9.86092 12.8173C12.1221 11.3064 14.7805 10.5 17.5 10.5C19.306 10.499 21.0944 10.854 22.7631 11.5447C24.4317 12.2353 25.9479 13.2481 27.2249 14.5251C28.5019 15.8021 29.5147 17.3183 30.2054 18.9869C30.896 20.6556 31.251 22.444 31.25 24.25ZM21.25 18C21.25 16.625 19.575 15.5 17.5 15.5C15.425 15.5 13.75 16.625 13.75 18C13.75 19.375 15.425 20.5 17.5 20.5C19.575 20.5 21.25 19.375 21.25 18Z" fill="#6F60BA"/>
<path d="M17.5 10.5C14.7805 10.5 12.1221 11.3064 9.86092 12.8173C7.59974 14.3282 5.83737 16.4756 4.79666 18.9881C3.75596 21.5006 3.48366 24.2653 4.01421 26.9325C4.54476 29.5997 5.85432 32.0497 7.77729 33.9727C9.70026 35.8957 12.1503 37.2053 14.8175 37.7358C17.4848 38.2663 20.2494 37.994 22.7619 36.9533C25.2744 35.9126 27.4218 34.1503 28.9327 31.8891C30.4436 29.6279 31.25 26.9695 31.25 24.25C31.251 22.444 30.896 20.6556 30.2054 18.9869C29.5147 17.3183 28.5019 15.8021 27.2249 14.5251C25.9479 13.2481 24.4317 12.2353 22.7631 11.5447C21.0944 10.854 19.306 10.499 17.5 10.5ZM17.5 31.75C10.5913 31.75 5.00001 27.2775 5.00001 21.75C5.00001 16.2225 10.5913 11.75 17.5 11.75C24.4088 11.75 30 16.2225 30 21.75C30 27.2775 24.4088 31.75 17.5 31.75Z" fill="#483584"/>
<path d="M17.5 23C22.3325 23 26.25 20.4816 26.25 17.375C26.25 14.2684 22.3325 11.75 17.5 11.75C12.6675 11.75 8.75 14.2684 8.75 17.375C8.75 20.4816 12.6675 23 17.5 23Z" fill="#9883FF"/>
<path d="M17.5 21.75C20.2614 21.75 22.5 20.0711 22.5 18C22.5 15.9289 20.2614 14.25 17.5 14.25C14.7386 14.25 12.5 15.9289 12.5 18C12.5 20.0711 14.7386 21.75 17.5 21.75Z" fill="#5F4A9E"/>
<path d="M17.5 20.5C19.5711 20.5 21.25 19.3807 21.25 18C21.25 16.6193 19.5711 15.5 17.5 15.5C15.4289 15.5 13.75 16.6193 13.75 18C13.75 19.3807 15.4289 20.5 17.5 20.5Z" fill="#39285E"/>
<path d="M17.5 16.75C18.2189 16.6845 18.9415 16.8262 19.5824 17.1585C20.2233 17.4908 20.7555 17.9997 21.1162 18.625C21.1997 18.4269 21.2451 18.2149 21.25 18C21.25 16.625 19.575 15.5 17.5 15.5C15.425 15.5 13.75 16.625 13.75 18C13.7549 18.2149 13.8003 18.4269 13.8838 18.625C14.2445 17.9997 14.7767 17.4908 15.4176 17.1585C16.0585 16.8262 16.7811 16.6845 17.5 16.75Z" fill="#261647"/>
<path d="M26.9075 19.2562C26.8175 19.2693 26.7299 19.2954 26.6475 19.3337C25.9525 19.6462 25.5425 20.5837 25.0475 21.1325C23.6896 22.6342 21.9141 23.6963 19.9487 24.1825C19.732 24.2001 19.5213 24.2624 19.3298 24.3654C19.1384 24.4684 18.9703 24.61 18.8362 24.7812C18.7534 24.979 18.7375 25.1984 18.791 25.406C18.8444 25.6137 18.9644 25.7981 19.1325 25.9312C19.4742 26.1858 19.8735 26.3519 20.295 26.415C21.8654 26.8532 23.5253 26.8567 25.0975 26.425C25.8505 26.158 26.5408 25.7397 27.126 25.1958C27.7112 24.6519 28.1788 23.994 28.5 23.2625C28.7007 22.7937 28.7757 22.2807 28.7176 21.7741C28.6595 21.2676 28.4703 20.7849 28.1687 20.3737C27.855 19.8562 27.5075 19.1762 26.9075 19.2562Z" fill="#7E6DD4"/>
<path d="M8.76873 34.875C11.2271 32.8496 14.3147 31.7445 17.5 31.75C15.0253 31.7674 12.5862 31.1598 10.4087 29.9838C9.07331 30.7829 7.8831 31.8028 6.88873 33C7.45402 33.6837 8.08357 34.3116 8.76873 34.875Z" fill="#39285E"/>
<path d="M29.9838 21.4912C29.5472 21.7739 29.1269 22.0811 28.725 22.4112C28.6975 22.7049 28.6233 22.9923 28.505 23.2625C27.9143 24.5765 26.8613 25.6277 25.5463 26.2162C24.9246 27.3133 24.4577 28.4911 24.1588 29.7162C22.0468 28.5449 19.6629 27.9524 17.2483 27.9987C14.8337 28.0451 12.4742 28.7285 10.4088 29.98C12.4975 31.0888 14.8171 31.6924 17.1814 31.7424C19.5457 31.7923 21.8888 31.2871 24.0225 30.2675C24.2138 30.1737 24.4075 30.0812 24.5913 29.98C26.1511 29.2233 27.4773 28.0589 28.4295 26.6101C29.3816 25.1613 29.9243 23.482 30 21.75C30 21.6625 29.9863 21.5775 29.9838 21.4912Z" fill="#483584"/>
<path d="M30.8413 20.97C30.5475 21.1325 30.2625 21.3087 29.9837 21.4912C29.9837 21.5775 30 21.6625 30 21.75C29.925 23.4826 29.3826 25.1628 28.4304 26.6123C27.4782 28.0618 26.1516 29.2268 24.5913 29.9837C24.4075 30.085 24.2163 30.1775 24.0225 30.2712C21.9895 31.255 19.7585 31.7608 17.5 31.75C20.6821 31.7626 23.7638 32.8656 26.2313 34.875C26.9147 34.3113 27.5425 33.6834 28.1063 33C28.3488 32.7062 28.5738 32.3975 28.7913 32.0837C28.9494 29.6018 29.7818 27.2101 31.1987 25.1662C31.2188 24.8625 31.245 24.5587 31.245 24.25C31.2425 23.1444 31.1069 22.0431 30.8413 20.97Z" fill="#39285E"/>
<path d="M28.5 23.2625C28.6183 22.9923 28.6925 22.7049 28.72 22.4113C27.4393 23.4772 26.3623 24.7663 25.5413 26.2163C26.8563 25.6278 27.9093 24.5766 28.5 23.2625Z" fill="#5F4A9E"/>
<path d="M10 49.25C11.3807 49.25 12.5 47.5711 12.5 45.5C12.5 43.4289 11.3807 41.75 10 41.75C8.61929 41.75 7.5 43.4289 7.5 45.5C7.5 47.5711 8.61929 49.25 10 49.25Z" fill="#39285E"/>
<path d="M17.5 31.75C20.2195 31.75 22.8779 32.5564 25.1391 34.0673C27.4003 35.5782 29.1626 37.7256 30.2033 40.2381C31.244 42.7506 31.5163 45.5153 30.9858 48.1825C30.4553 50.8497 29.1457 53.2997 27.2227 55.2227C25.2997 57.1457 22.8497 58.4553 20.1825 58.9858C17.5153 59.5163 14.7506 59.244 12.2381 58.2033C9.72562 57.1626 7.57816 55.4003 6.06729 53.1391C4.55643 50.8779 3.75 48.2195 3.75 45.5C3.74902 43.694 4.104 41.9056 4.79465 40.2369C5.4853 38.5683 6.49808 37.0521 7.77509 35.7751C9.05209 34.4981 10.5683 33.4853 12.2369 32.7946C13.9056 32.104 15.694 31.749 17.5 31.75ZM12.5 45.5C12.5 43.425 11.375 41.75 10 41.75C8.625 41.75 7.5 43.425 7.5 45.5C7.5 47.575 8.625 49.25 10 49.25C11.375 49.25 12.5 47.575 12.5 45.5Z" fill="#7E6DD4"/>
<path d="M3.75 45.5C3.75 48.2195 4.55643 50.8779 6.06729 53.1391C7.57816 55.4003 9.72562 57.1626 12.2381 58.2033C14.7506 59.244 17.5153 59.5163 20.1825 58.9858C22.8497 58.4553 25.2997 57.1457 27.2227 55.2227C29.1457 53.2997 30.4553 50.8497 30.9858 48.1825C31.5163 45.5153 31.244 42.7506 30.2033 40.2381C29.1626 37.7256 27.4003 35.5782 25.1391 34.0673C22.8779 32.5564 20.2195 31.75 17.5 31.75C15.694 31.749 13.9056 32.104 12.2369 32.7946C10.5683 33.4853 9.05209 34.4981 7.77509 35.7751C6.49808 37.0521 5.4853 38.5683 4.79465 40.2369C4.104 41.9056 3.74902 43.694 3.75 45.5ZM25 45.5C25 52.4088 20.5275 58 15 58C9.4725 58 5 52.4088 5 45.5C5 38.5913 9.4725 33 15 33C20.5275 33 25 38.5913 25 45.5Z" fill="#5F4A9E"/>
<path d="M10.625 54.25C13.7316 54.25 16.25 50.3325 16.25 45.5C16.25 40.6675 13.7316 36.75 10.625 36.75C7.5184 36.75 5 40.6675 5 45.5C5 50.3325 7.5184 54.25 10.625 54.25Z" fill="#9883FF"/>
<path d="M10 50.5C12.0711 50.5 13.75 48.2614 13.75 45.5C13.75 42.7386 12.0711 40.5 10 40.5C7.92893 40.5 6.25 42.7386 6.25 45.5C6.25 48.2614 7.92893 50.5 10 50.5Z" fill="#5F4A9E"/>
<path d="M10 49.25C11.3807 49.25 12.5 47.5711 12.5 45.5C12.5 43.4289 11.3807 41.75 10 41.75C8.61929 41.75 7.5 43.4289 7.5 45.5C7.5 47.5711 8.61929 49.25 10 49.25Z" fill="#39285E"/>
<path d="M8.75 45.5C8.68446 44.7811 8.82623 44.0585 9.15851 43.4176C9.49079 42.7767 9.99969 42.2445 10.625 41.8837C10.4269 41.8003 10.2149 41.7549 10 41.75C8.625 41.75 7.5 43.425 7.5 45.5C7.5 47.575 8.625 49.25 10 49.25C10.2149 49.2451 10.4269 49.1997 10.625 49.1163C9.99969 48.7555 9.49079 48.2233 9.15851 47.5824C8.82623 46.9415 8.68446 46.2189 8.75 45.5Z" fill="#261647"/>
<path d="M13.5 36.0088C13.5133 36.0987 13.5394 36.1863 13.5775 36.2688C13.8913 36.9638 14.835 37.3738 15.3775 37.8675C16.8785 39.2263 17.9401 41.0021 18.4263 42.9675C18.4439 43.1844 18.5064 43.3952 18.6097 43.5867C18.7129 43.7781 18.8548 43.9461 19.0263 44.08C19.2238 44.1628 19.443 44.1786 19.6505 44.1252C19.8579 44.0717 20.0421 43.9518 20.175 43.7838C20.4296 43.442 20.5957 43.0427 20.6588 42.6213C21.0973 41.0505 21.1007 39.3901 20.6688 37.8175C20.4024 37.0638 19.9843 36.3726 19.4404 35.7868C18.8965 35.2009 18.2382 34.7328 17.5063 34.4113C17.0375 34.2106 16.5245 34.1356 16.0179 34.1937C15.5113 34.2517 15.0287 34.4409 14.6175 34.7425C14.1063 35.0613 13.4263 35.4075 13.5 36.0088Z" fill="#9883FF"/>
<path d="M31.25 24.1325C31.6475 24.2125 31.875 24.25 31.875 24.25L31.9088 24.2288C32.1213 23.9713 32.3512 23.7287 32.5825 23.4875C33.4802 21.8453 33.8856 19.9791 33.75 18.1125C33.75 18.1125 33.75 4.8125 20.625 1.75C19.5697 4.57592 18.9787 7.554 18.875 10.5688C22.2475 10.9051 25.3767 12.4761 27.661 14.9799C29.9453 17.4836 31.2236 20.7434 31.25 24.1325Z" fill="#4E8C00"/>
<path d="M42.5 19.25C46.0678 19.2479 49.4955 20.6382 52.0538 23.125C52.9633 22.3274 53.6954 21.348 54.2029 20.2499C54.7103 19.1518 54.9819 17.9595 55 16.75C55 6.75 52.5 1.75 52.5 1.75C48.3105 7.22853 44.6681 13.1045 41.625 19.2938C41.915 19.2763 42.205 19.25 42.5 19.25Z" fill="#63B300"/>
<path d="M52.5 1.75C36.3175 5.2175 35.1 19.3638 35.0087 21.4763C36.9885 20.1893 39.268 19.4374 41.625 19.2938C44.668 13.1045 48.3104 7.22853 52.5 1.75Z" fill="#4E8C00"/>
<path d="M44.2188 14.375C43.3438 15.9225 42.4688 17.5662 41.625 19.3C41.915 19.2825 42.205 19.2562 42.5 19.2562C46.0678 19.2542 49.4955 20.6444 52.0538 23.1312C52.8491 22.3832 53.52 21.5131 54.0413 20.5537C52.9541 18.8695 51.5114 17.4436 49.8145 16.3762C48.1176 15.3088 46.2077 14.6258 44.2188 14.375Z" fill="#4E8C00"/>
<path d="M41.625 19.2938C42.475 17.56 43.35 15.9188 44.2187 14.3688C43.6488 14.2937 43.0748 14.2541 42.5 14.25C40.2717 14.2489 38.0768 14.7921 36.1062 15.8325C35.492 17.6568 35.1229 19.5547 35.0087 21.4763C36.9885 20.1893 39.268 19.4374 41.625 19.2938Z" fill="#3F7000"/>
<path d="M19.5 5.76501C19.192 7.35171 18.9833 8.95608 18.875 10.5688C22.2475 10.9051 25.3767 12.4761 27.661 14.9799C29.9453 17.4836 31.2236 20.7434 31.25 24.1325C31.6475 24.2125 31.875 24.25 31.875 24.25L31.9088 24.2288C32.1213 23.9713 32.3512 23.7288 32.5825 23.4875C33.4802 21.8453 33.8856 19.9792 33.75 18.1125C33.6944 16.5801 33.4466 15.0607 33.0125 13.59C29.703 9.31723 24.8532 6.50874 19.5 5.76501Z" fill="#3F7000"/>
<path d="M52.0283 27.5516C52.8338 26.7462 52.5777 25.1842 51.4564 24.0629C50.3351 22.9416 48.7732 22.6856 47.9677 23.4911C47.1623 24.2965 47.4183 25.8585 48.5396 26.9797C49.6609 28.101 51.2229 28.3571 52.0283 27.5516Z" fill="#F6FAFD"/>
<path d="M17.0195 40.0404C17.825 39.2349 17.569 37.673 16.4477 36.5517C15.3264 35.4304 13.7644 35.1744 12.959 35.9798C12.1535 36.7853 12.4096 38.3472 13.5309 39.4685C14.6522 40.5898 16.2141 40.8458 17.0195 40.0404Z" fill="#F6FAFD"/>
<path d="M35.7746 35.0466C36.58 34.2412 36.324 32.6792 35.2027 31.5579C34.0814 30.4366 32.5194 30.1806 31.714 30.9861C30.9085 31.7915 31.1646 33.3534 32.2859 34.4747C33.4072 35.596 34.9691 35.8521 35.7746 35.0466Z" fill="#C4B0FF"/>
<path d="M51.0112 31.5359C51.4139 31.1332 51.2861 30.3524 50.7257 29.792C50.1653 29.2316 49.3845 29.1038 48.9818 29.5065C48.5791 29.9092 48.7069 30.69 49.2673 31.2504C49.8277 31.8108 50.6085 31.9386 51.0112 31.5359Z" fill="#F6FAFD"/>
<path d="M26.0112 20.276C26.4139 19.8733 26.2861 19.0925 25.7257 18.5321C25.1653 17.9717 24.3845 17.8439 23.9818 18.2466C23.5791 18.6494 23.7069 19.4301 24.2673 19.9905C24.8277 20.5509 25.6085 20.6788 26.0112 20.276Z" fill="#F6FAFD"/>
<path d="M25.1874 16.6437C25.389 16.4421 25.3253 16.0515 25.0451 15.7713C24.7649 15.4911 24.3743 15.4274 24.1727 15.629C23.9711 15.8306 24.0348 16.2212 24.315 16.5014C24.5952 16.7816 24.9858 16.8453 25.1874 16.6437Z" fill="#F6FAFD"/>
<path d="M57.25 30.2737L54.7912 30.7262C54.9291 31.4763 54.9989 32.2373 55 33C55.0023 35.003 54.5232 36.9772 53.6031 38.7564C52.683 40.5356 51.3488 42.0676 49.7128 43.2234C48.0769 44.3792 46.1872 45.125 44.2028 45.3978C42.2185 45.6707 40.1976 45.4627 38.3104 44.7913C36.4233 44.12 34.7251 43.005 33.3589 41.5402C31.9927 40.0754 30.9985 38.3037 30.4601 36.3744C29.9216 34.4451 29.8547 32.4147 30.265 30.4541C30.6753 28.4935 31.5507 26.6603 32.8175 25.1087C33.0985 24.8704 33.3457 24.5949 33.5525 24.29C35.009 22.7892 36.8192 21.6783 38.8169 21.0593C40.8146 20.4403 42.9357 20.333 44.9857 20.7472C47.0356 21.1614 48.9487 22.0839 50.5492 23.43C52.1498 24.7761 53.3867 26.5027 54.1462 28.4512L56.4762 27.5412C55.8419 25.9224 54.9332 24.425 53.79 23.115C55.367 21.3694 56.2431 19.1024 56.25 16.75C56.25 6.57122 53.725 1.40622 53.625 1.19122C53.5008 0.94175 53.2968 0.740935 53.0454 0.620676C52.794 0.500417 52.5097 0.467611 52.2375 0.527469C40.8312 2.97247 36.4625 10.5637 34.7887 15.9675C34.1462 11.8487 31.5387 3.01622 20.9137 0.532469C20.6329 0.466718 20.3379 0.500125 20.0789 0.627023C19.8199 0.753921 19.6127 0.966502 19.4925 1.22872C18.5135 3.80488 17.9237 6.51251 17.7425 9.26247C17.6637 9.26247 17.5862 9.24997 17.5075 9.24997C14.7607 9.24902 12.0664 10.0023 9.71845 11.4276C7.37046 12.853 5.45893 14.8957 4.19231 17.333C2.9257 19.7703 2.35263 22.5086 2.53562 25.2492C2.7186 27.9899 3.65061 30.6277 5.22999 32.875L7.27249 31.435C6.14312 29.8277 5.40843 27.9769 5.12801 26.0327C4.8476 24.0885 5.02934 22.1055 5.65851 20.2446C6.28769 18.3838 7.34657 16.6974 8.74929 15.3222C10.152 13.947 11.8591 12.9218 13.7321 12.3297C15.6051 11.7376 17.5913 11.5952 19.5296 11.9142C21.4678 12.2331 23.3037 13.0044 24.8882 14.1654C26.4727 15.3265 27.7613 16.8446 28.6494 18.5967C29.5376 20.3488 30.0003 22.2856 30 24.25C30 24.4237 29.9837 24.5925 29.9762 24.7637C28.3595 27.2062 27.4983 30.0709 27.5 33C27.5 33.4787 27.5275 33.95 27.5712 34.4162C25.0248 32.1123 21.7641 30.7533 18.3351 30.567C14.9062 30.3807 11.5174 31.3783 8.73635 33.3928C5.9553 35.4072 3.95094 38.3162 3.05903 41.6323C2.16711 44.9485 2.44181 48.4704 3.83711 51.6081C5.23241 54.7459 7.66356 57.3088 10.7233 58.8677C13.7831 60.4266 17.2856 60.8868 20.6442 60.171C24.0027 59.4553 27.0134 57.6072 29.1717 54.9363C31.3301 52.2654 32.5051 48.934 32.5 45.5C32.5 45.0212 32.4725 44.55 32.4287 44.0837C34.5746 46.0434 37.2444 47.3363 40.1124 47.8048C42.9805 48.2733 45.9228 47.8971 48.5807 46.722C51.2387 45.547 53.4972 43.6239 55.081 41.1874C56.6647 38.7508 57.5052 35.906 57.5 33C57.4995 32.0855 57.4158 31.173 57.25 30.2737ZM53.75 16.75C53.7455 18.4512 53.1201 20.0923 51.9912 21.365C49.6185 19.4273 46.7065 18.2676 43.6512 18.0437C46.1332 13.271 48.9656 8.68889 52.125 4.33497C53.2769 8.37033 53.8245 12.5541 53.75 16.75ZM49.2987 3.96497C46.1253 8.45873 43.2924 13.1836 40.8237 18.1C39.3349 18.2663 37.8797 18.6565 36.5075 19.2575C37.0437 15.7848 38.5186 12.5248 40.773 9.82953C43.0274 7.13429 45.9755 5.10639 49.2987 3.96497ZM20.2125 9.50872C20.3934 7.38677 20.7939 5.2893 21.4075 3.24997C32.325 6.48122 32.5 17.625 32.5 18.1137C32.517 19.1461 32.4104 20.1767 32.1825 21.1837C31.5677 18.2711 30.1019 15.6065 27.9709 13.528C25.8398 11.4495 23.1396 10.0506 20.2125 9.50872ZM17.5 58C15.0277 58 12.611 57.2669 10.5554 55.8933C8.49975 54.5198 6.89759 52.5676 5.9515 50.2835C5.0054 47.9994 4.75786 45.4861 5.24018 43.0613C5.72249 40.6366 6.913 38.4093 8.66116 36.6611C10.4093 34.913 12.6366 33.7225 15.0614 33.2402C17.4861 32.7578 19.9995 33.0054 22.2835 33.9515C24.5676 34.8976 26.5198 36.4997 27.8934 38.5553C29.2669 40.611 30 43.0277 30 45.5C29.9964 48.8141 28.6782 51.9914 26.3348 54.3348C23.9914 56.6782 20.8141 57.9963 17.5 58Z" fill="#001A1F"/>
<path d="M10 40.5C7.89625 40.5 6.25 42.6962 6.25 45.5C6.25 48.3038 7.89625 50.5 10 50.5C12.1037 50.5 13.75 48.3038 13.75 45.5C13.75 42.6962 12.1037 40.5 10 40.5ZM10 48C9.49 48 8.75 47.0262 8.75 45.5C8.75 43.9738 9.49 43 10 43C10.51 43 11.25 43.9738 11.25 45.5C11.25 47.0262 10.51 48 10 48Z" fill="#001A1F"/>
<path d="M22.5 18C22.5 15.8963 20.3038 14.25 17.5 14.25C14.6962 14.25 12.5 15.8963 12.5 18C12.5 20.1037 14.6962 21.75 17.5 21.75C20.3038 21.75 22.5 20.1037 22.5 18ZM15 18C15 17.49 15.9738 16.75 17.5 16.75C19.0262 16.75 20 17.49 20 18C20 18.51 19.0262 19.25 17.5 19.25C15.9738 19.25 15 18.51 15 18Z" fill="#001A1F"/>
<path d="M37.5 26.75C37.5 28.8537 39.6962 30.5 42.5 30.5C45.3038 30.5 47.5 28.8537 47.5 26.75C47.5 24.6463 45.3038 23 42.5 23C39.6962 23 37.5 24.6463 37.5 26.75ZM45 26.75C45 27.26 44.0262 28 42.5 28C40.9738 28 40 27.26 40 26.75C40 26.24 40.9738 25.5 42.5 25.5C44.0262 25.5 45 26.24 45 26.75Z" fill="#001A1F"/>
</g>
<defs>
<clipPath id="clip0_7_1426">
<rect width="60" height="60" fill="white" transform="translate(0 0.5)"/>
</clipPath>
</defs>
</svg>
