<svg width="60" height="61" viewBox="0 0 60 61" fill="none" xmlns="http://www.w3.org/2000/svg">
<g clip-path="url(#clip0_7_1249)">
<path d="M58.0987 15.5072C57.0911 13.9351 55.4195 13.2052 53.7957 13.3164C55.9422 11.5315 56.0546 8.32822 54.1202 6.39381C52.1851 4.45869 48.982 4.57272 47.1976 6.7183C47.3089 5.09455 46.5791 3.42276 45.0068 2.41529C41.9852 0.475607 37.9228 2.64088 37.8382 6.28483C37.7812 8.71694 36.836 12.1853 35.7177 16.5932V16.5944C37.402 17.5089 38.97 18.8471 40.3183 20.1957C41.6746 21.5519 43.005 23.1122 43.9208 24.7963C48.883 23.5373 51.9291 22.7297 54.2292 22.6758C57.8625 22.5913 60.0432 18.5362 58.0987 15.5072Z" fill="#85E374"/>
<path d="M39.3307 37.5883C25.6601 46.8786 5.06451 62.282 1.64826 58.8658C-1.76799 55.4496 13.6354 34.8552 22.9269 21.1834C28.0638 13.6248 33.743 13.6204 40.3184 20.1957C46.8567 26.7341 46.9314 32.4228 39.3307 37.5883Z" fill="#FEA832"/>
<path d="M34.3646 27.8072C34.8215 27.3491 34.8215 26.6075 34.3646 26.1494C33.9065 25.6925 33.1649 25.6925 32.7068 26.1494C32.2499 26.6075 32.2499 27.3491 32.7068 27.8072C33.1649 28.2641 33.9066 28.2641 34.3646 27.8072Z" fill="black"/>
<path d="M19.4533 42.7186C19.9102 42.2605 19.9102 41.5189 19.4533 41.0608C18.9952 40.6039 18.2537 40.6039 17.7956 41.0608C17.3387 41.5189 17.3387 42.2605 17.7956 42.7186C18.2537 43.1755 18.9952 43.1755 19.4533 42.7186Z" fill="black"/>
<path d="M39.9893 38.5572C44.7793 35.3018 47.7526 31.006 45.587 25.5874C48.6164 24.8285 52.0131 23.8995 54.2564 23.847C58.8036 23.7415 61.5247 18.6756 59.0851 14.875C58.329 13.6951 57.2419 12.854 55.9929 12.4353C57.1455 10.25 56.8277 7.4443 54.9487 5.56532C53.0925 3.7093 50.2902 3.36161 48.0796 4.5227C47.6611 3.2729 46.8198 2.18575 45.6398 1.42954C41.8461 -1.00597 36.7729 1.70317 36.667 6.25754C36.6133 8.54809 35.6533 12.0268 34.9264 14.928C29.5072 12.7618 25.2117 15.7371 21.958 20.5249C16.6249 28.3718 9.10404 38.7452 4.45732 46.6432C0.124552 54.0079 -0.963417 57.9109 0.819708 59.6942C4.99346 63.868 22.0602 50.7418 39.9893 38.5572ZM57.1128 16.1401C58.5532 18.3841 56.9438 21.4409 54.2015 21.5048C51.5566 21.5668 47.9821 22.5717 44.4887 23.4468C43.9952 22.6557 43.4027 21.8575 42.7003 21.0383C54.5978 14.2827 53.7671 14.7897 54.2021 14.4794C55.381 14.5046 56.4518 15.1087 57.1128 16.1401ZM53.2918 7.22223C54.9503 8.88067 54.5468 11.681 52.4761 12.8018C52.4694 12.8054 52.463 12.8091 52.4563 12.8128L41.474 19.0399L47.7013 8.05766C47.7049 8.0511 47.7085 8.04465 47.7122 8.03809C48.8403 5.9559 51.6425 5.57282 53.2918 7.22223ZM39.0094 6.31215C39.0733 3.56317 42.1393 1.96661 44.3748 3.40169C45.4055 4.06215 46.009 5.13337 46.0347 6.31204C45.721 6.75196 46.2087 5.95684 39.4758 17.814C38.6551 17.1106 37.8569 16.5181 37.0672 16.0258C38.0359 12.1582 38.9497 8.86251 39.0094 6.31215ZM2.86147 55.0489C3.49662 53.2575 4.71315 50.8291 6.47693 47.8312C7.22846 46.5538 8.06061 45.2047 8.94771 43.8103L11.1692 46.0317C11.6269 46.4892 12.3684 46.4892 12.8262 46.0317C13.2837 45.5742 13.2837 44.8324 12.8262 44.3749L10.2466 41.7955C12.3476 38.5749 14.6694 35.1848 16.9336 31.9142L21.1096 36.0911C21.5669 36.5485 22.3087 36.549 22.7665 36.0913C23.224 35.6338 23.2241 34.8921 22.7667 34.4345L18.2907 29.9574C20.1853 27.2293 22.1716 24.379 23.8959 21.8418C24.3065 21.2375 24.7125 20.6977 25.1135 20.2138L29.3938 24.4931C29.8514 24.9505 30.593 24.9506 31.0507 24.493C31.5081 24.0354 31.5079 23.2937 31.0504 22.8362L26.7398 18.5266C31.1126 14.719 35.3743 16.9085 39.4901 21.0242C45.6428 27.1748 45.5089 31.9732 38.6724 36.6195C37.941 37.1166 37.1918 37.6299 36.4283 38.1556L32.7074 34.4347C32.2497 33.9772 31.5082 33.9772 31.0504 34.4347C30.5929 34.8922 30.5929 35.634 31.0504 36.0916L34.4683 39.5095C31.2796 41.7185 28.0126 44.0041 24.6743 46.2827L22.7669 44.3754C22.3094 43.9179 21.5679 43.9179 21.11 44.3754C20.6525 44.8329 20.6525 45.5747 21.11 46.0322L22.7006 47.6227C18.451 50.4908 10.275 55.9476 5.46572 57.6529C3.00397 58.5259 2.49736 58.0581 2.47697 58.0379C2.45623 58.017 1.98842 57.5109 2.86147 55.0489Z" fill="black"/>
</g>
<defs>
<clipPath id="clip0_7_1249">
<rect width="60" height="60" fill="white" transform="translate(0 0.5)"/>
</clipPath>
</defs>
</svg>
