<svg width="60" height="61" viewBox="0 0 60 61" fill="none" xmlns="http://www.w3.org/2000/svg">
<g clip-path="url(#clip0_7_1304)">
<path d="M53.7 28.4201L53.69 28.4501C51.16 44.1601 33.53 59.5001 22.63 59.5001C11.84 59.5001 4 52.9201 4 42.5801C4 32.2401 11.9 26.9001 17.73 25.6601C26.55 23.7801 29.93 22.2101 33.41 17.2001C33.9505 16.4323 34.6047 15.7511 35.35 15.1801C35.88 17.0401 43.49 14.8601 46.05 15.5001C53.71 17.4001 51.35 27.4501 53.7 28.4201Z" fill="#9D27B0"/>
<path d="M36.359 15.8511C35.819 15.7441 35.452 15.5381 35.35 15.1801C35.05 15.4188 34.7641 15.6749 34.494 15.9471C35.053 15.9511 35.689 15.9111 36.359 15.8511Z" fill="#6A1B9A"/>
<path d="M46.05 15.5C45.0181 15.3416 43.9687 15.3352 42.935 15.481C42.971 15.489 43.016 15.491 43.05 15.5C50.71 17.4 48.35 27.45 50.7 28.42L50.69 28.45C48.253 43.582 31.81 58.364 20.863 59.432C21.443 59.472 22.03 59.5 22.63 59.5C33.53 59.5 51.16 44.16 53.69 28.45L53.7 28.42C51.35 27.45 53.71 17.4 46.05 15.5Z" fill="#6A1B9A"/>
<path d="M54.1 28.5C53.9626 28.5006 53.8266 28.4734 53.7 28.42C51.35 27.45 53.71 17.4 46.05 15.5C43.49 14.86 35.88 17.04 35.35 15.18C35.25 14.81 35.43 14.26 36 13.5C38.99 9.5 45.05 10.5 48.06 10.5C51.07 10.5 48.06 3.5 48.06 3.5C49.07 1.5 52.09 1.5 52.09 1.5C56.11 7.5 52.09 10.5 54.1 13.5C56.11 16.5 57.11 28.5 54.1 28.5Z" fill="#60A917"/>
<path d="M54.1 13.5C52.09 10.5 56.11 7.5 52.09 1.5C51.1832 1.52364 50.2919 1.73975 49.475 2.134C52.8 7.71 49.163 10.609 51.1 13.5C52.6 15.746 53.543 23.035 52.657 26.558C52.877 27.511 53.167 28.2 53.7 28.42C53.8266 28.4734 53.9626 28.5006 54.1 28.5C57.11 28.5 56.11 16.5 54.1 13.5Z" fill="#549414"/>
<path d="M8 41.5C7.44772 41.5 7 41.0523 7 40.5C7 37.937 9.449 31.618 16.725 29.539C17.0721 29.4286 17.4518 29.5157 17.7161 29.7663C17.9804 30.0169 18.0876 30.3914 17.9959 30.7439C17.9041 31.0963 17.628 31.3711 17.275 31.461C10.473 33.405 9 39.176 9 40.5C9 41.0523 8.55228 41.5 8 41.5Z" fill="#F5F5F5"/>
<path d="M8 45.5C8.55228 45.5 9 45.0523 9 44.5C9 43.9477 8.55228 43.5 8 43.5C7.44772 43.5 7 43.9477 7 44.5C7 45.0523 7.44772 45.5 8 45.5Z" fill="#F5F5F5"/>
<path d="M22.6301 60.5C33.9301 60.5 51.4441 45.28 54.5171 29.455C55.2383 29.2808 55.839 28.7838 56.1451 28.108C57.8171 24.973 56.8041 15.743 54.9281 12.943C54.3431 12.071 54.4501 11.194 54.6891 9.719C55.4009 6.67514 54.7542 3.4722 52.9171 0.943C52.7313 0.665986 52.4197 0.499838 52.0861 0.5C51.9381 0.5 48.4381 0.529 47.1711 3.051C47.0383 3.31512 47.0291 3.62449 47.1461 3.896C48.0381 5.971 48.7201 8.759 48.2711 9.44C48.2551 9.464 48.2311 9.5 48.0641 9.5C47.6211 9.5 47.1091 9.478 46.5511 9.453C43.1681 9.3 38.0581 9.083 35.2001 12.9C34.7715 13.4245 34.4794 14.0471 34.3501 14.712C33.6824 15.2718 33.0904 15.9162 32.5891 16.629C29.4171 21.195 26.4591 22.775 17.5221 24.681C9.04101 26.4349 2.96857 33.9195 3.00012 42.58C3.00012 53.131 11.0721 60.5 22.6301 60.5ZM36.8001 14.1C39.0261 11.127 43.3251 11.315 46.4641 11.451C47.0551 11.477 47.5951 11.5 48.0641 11.5C48.814 11.5274 49.5245 11.164 49.9411 10.54C51.0661 8.83 49.8481 5.24 49.1881 3.6C49.836 2.98425 50.6768 2.61151 51.5681 2.545C52.8824 4.57287 53.298 7.05457 52.7161 9.4C52.4691 10.919 52.2161 12.488 53.2661 14.059C54.7421 16.259 55.6811 24.732 54.3801 27.169C54.2641 27.387 54.1491 27.502 54.0801 27.504C53.7461 27.296 53.4801 25.67 53.3031 24.594C52.7351 21.14 51.8771 15.921 46.2891 14.532C45.784 14.4207 45.2673 14.37 44.7501 14.381C43.5229 14.4144 42.2983 14.5112 41.0811 14.671C39.5651 14.841 37.0951 15.117 36.3541 14.838C36.4684 14.5728 36.6184 14.3245 36.8001 14.1ZM17.9381 26.638C26.7171 24.767 30.4981 23.146 34.2321 17.77C34.5549 17.3219 34.9236 16.9086 35.3321 16.537C36.5511 17.175 38.7061 16.947 41.3101 16.657C42.7963 16.406 44.3082 16.3431 45.8101 16.47C50.1201 17.542 50.7921 21.631 51.3321 24.917C51.5911 26.498 51.8541 28.003 52.5971 28.834C49.8661 43.643 33.0441 58.5 22.6301 58.5C12.0851 58.5 5.00012 52.1 5.00012 42.58C5.00012 32.146 13.4631 27.59 17.9381 26.638Z" fill="black"/>
</g>
<defs>
<clipPath id="clip0_7_1304">
<rect width="60" height="60" fill="white" transform="translate(0 0.5)"/>
</clipPath>
</defs>
</svg>
