<svg width="60" height="61" viewBox="0 0 60 61" fill="none" xmlns="http://www.w3.org/2000/svg">
<g clip-path="url(#clip0_7_1255)">
<mask id="mask0_7_1255" style="mask-type:luminance" maskUnits="userSpaceOnUse" x="0" y="0" width="60" height="61">
<path d="M0 0.500004H60V60.5H0V0.500004Z" fill="white"/>
</mask>
<g mask="url(#mask0_7_1255)">
<path fill-rule="evenodd" clip-rule="evenodd" d="M27.2062 57.6979C27.5412 56.0472 29.2392 51.2676 37.6604 51.4681C37.6604 51.4681 38.6827 42.2845 44.104 39.9328C43.8523 39.2236 43.7147 38.46 43.7147 37.6643C43.7147 34.171 46.3561 31.2948 49.7505 30.9239C49.9952 30.8972 50.2438 30.8834 50.4955 30.8834C51.7775 30.8834 52.9762 31.2391 53.9987 31.8573C55.9632 33.0449 57.2764 35.2011 57.2764 37.6643C57.2764 41.3349 54.3596 44.3239 50.7175 44.4411C49.5158 53.8514 41.845 62.4075 27.1259 58.2488C27.1259 58.2488 27.1366 58.0409 27.2062 57.6979Z" fill="#73CA5B"/>
<path fill-rule="evenodd" clip-rule="evenodd" d="M18.4292 43.7744C25.4988 49.1751 27.1259 58.2489 27.1259 58.2489C14.4866 58.2489 4.24048 47.6233 4.24048 34.516C4.24048 31.2985 4.85923 28.2312 5.97778 25.4332C5.94532 25.6754 4.47392 37.0466 14.654 41.5391C16.0585 42.1588 17.3118 42.9208 18.4292 43.7744Z" fill="#A6F074"/>
<path fill-rule="evenodd" clip-rule="evenodd" d="M16.107 33.3052C20.4661 35.727 18.4291 43.7743 18.4291 43.7743C17.3117 42.9207 16.0584 42.1587 14.654 41.5391C4.4738 37.0466 5.94521 25.6753 5.97767 25.4332L5.97661 25.4325C0.0139976 21.4249 3.38349 16.3771 7.07314 16.6332L7.07302 16.6343C8.18536 16.7114 9.32677 17.2698 10.2503 18.4848L10.251 18.4855L10.2517 18.4862C12.2804 20.4905 12.2323 23.8605 12.2323 23.8605C16.2891 26.5152 16.107 33.3052 16.107 33.3052Z" fill="#73CA5B"/>
<path fill-rule="evenodd" clip-rule="evenodd" d="M49.7467 30.898C48.1559 20.1125 39.5642 11.7168 28.9323 10.8559C28.9323 10.8559 31.5166 6.37113 38.2183 8.13445L38.2194 8.13328C39.6711 8.51554 41.3162 9.19102 43.1699 10.2688C43.1699 10.2688 48.7399 7.84711 50.9194 13.7803C58.061 14.4013 58.9696 22.0767 54.5521 26.4943C54.5521 26.4943 55.8671 28.5019 53.9987 31.8573C52.9763 31.239 51.7775 30.8834 50.4956 30.8834C50.2437 30.8834 49.9952 30.8975 49.7506 30.9244C49.7492 30.9155 49.748 30.9067 49.7467 30.898Z" fill="#A6F074"/>
<path fill-rule="evenodd" clip-rule="evenodd" d="M49.7467 30.898C49.748 30.9067 49.7492 30.9155 49.7505 30.9239C46.356 31.2948 43.7146 34.1711 43.7146 37.6642C43.7146 38.4599 43.8522 39.2235 44.104 39.9328C38.6826 42.2844 37.6603 51.4681 37.6603 51.4681C29.2391 51.2676 27.5412 56.0472 27.2062 57.6979C27.1367 58.0409 27.1259 58.2489 27.1259 58.2489C27.1259 58.2489 25.4987 49.1751 18.4292 43.7744C18.4292 43.7744 20.4662 35.7271 16.107 33.3053C16.107 33.3053 16.2891 26.5152 12.2323 23.8606C12.2323 23.8606 12.2803 20.4906 10.2518 18.4862C14.4353 13.7521 20.4457 10.783 27.1259 10.783C27.7339 10.783 28.3361 10.8086 28.9321 10.8573C39.5638 11.7184 48.1559 20.1127 49.7467 30.898Z" fill="#DCFFB6"/>
<path fill-rule="evenodd" clip-rule="evenodd" d="M38.2193 8.13328C38.2193 8.13328 36.6312 1.67156 29.1239 1.67156C21.6167 1.67156 20.648 6.99937 20.648 6.99937C20.648 6.99937 8.25519 5.68277 7.07324 16.6332L7.07312 16.6343C8.18546 16.7114 9.32675 17.2698 10.2504 18.4848L10.2518 18.4862C14.4353 13.7521 20.4457 10.7829 27.1259 10.7829C27.7339 10.7829 28.3361 10.8086 28.9321 10.8573L28.9322 10.8558C28.9322 10.8558 31.5166 6.37113 38.2183 8.13445L38.2193 8.13328Z" fill="#73CA5B"/>
<path d="M28.9322 10.8559C28.9322 10.8559 32.7564 4.21454 43.1699 10.2688C43.1699 10.2688 48.7399 7.84711 50.9194 13.7803C58.061 14.4013 58.9696 22.0767 54.5521 26.4943C54.5521 26.4943 55.8671 28.5019 53.9987 31.8573L53.9985 31.8574C52.9762 31.2393 51.7775 30.8834 50.4956 30.8834C50.2437 30.8834 49.9952 30.8975 49.7506 30.9244C48.1699 20.1263 39.5725 11.7191 28.9321 10.8574L28.9322 10.8559Z" stroke="black" stroke-width="2.46094" stroke-miterlimit="2.613" stroke-linecap="round" stroke-linejoin="round"/>
<path d="M9.09931 49.1386C13.2883 54.6846 19.8058 58.2488 27.1259 58.2488C27.1259 58.2488 27.4892 51.226 37.6605 51.4681C37.6605 51.4681 38.6826 42.2844 44.104 39.9327C43.8523 39.2235 43.7147 38.4599 43.7147 37.6642C43.7147 34.1711 46.3563 31.2953 49.7507 30.9243C48.0817 19.5245 38.524 10.6355 26.835 10.7849M7.1997 46.1967C7.20942 46.2144 7.21915 46.2321 7.22876 46.2498M5.97778 25.4332C4.85923 28.2312 4.24048 31.2985 4.24048 34.516C4.24048 37.0201 4.61466 39.4339 5.30782 41.6999M18.7395 12.4273C15.4769 13.7607 12.5806 15.8496 10.2511 18.4855M21.9045 11.4035C21.8992 11.4048 21.894 11.4062 21.8887 11.4074" stroke="black" stroke-width="2.46094" stroke-miterlimit="2.613" stroke-linecap="round" stroke-linejoin="round"/>
<path d="M34.6939 20.8033C34.6939 20.8033 21.1713 28.2371 27.2061 57.6979" stroke="black" stroke-width="2.46094" stroke-miterlimit="2.613" stroke-linecap="round" stroke-linejoin="round"/>
<path d="M27.1258 58.2488C27.1258 58.2488 24.9437 46.0799 14.6539 41.539C4.47385 37.0465 5.94526 25.6752 5.97772 25.4332" stroke="black" stroke-width="2.46094" stroke-miterlimit="2.613" stroke-linecap="round" stroke-linejoin="round"/>
<path d="M50.4955 30.8833C46.7505 30.8833 43.7147 33.9192 43.7147 37.6642C43.7147 38.4599 43.8523 39.2235 44.104 39.9328C38.6825 42.2844 37.6604 51.468 37.6604 51.468C27.4891 51.2259 27.1259 58.2488 27.1259 58.2488C41.845 62.4075 49.5158 53.8513 50.7175 44.441C54.3596 44.3238 57.2763 41.3349 57.2763 37.6642C57.2763 33.9192 54.2405 30.8833 50.4955 30.8833Z" stroke="black" stroke-width="2.46094" stroke-miterlimit="2.613" stroke-linecap="round" stroke-linejoin="round"/>
<path d="M16.107 33.3052C20.4662 35.727 18.4291 43.7743 18.4291 43.7743C17.3239 42.93 16.0855 42.1753 14.6996 41.5593L14.654 41.5391C4.47384 37.0466 5.94525 25.6753 5.97771 25.4332C5.97771 25.4332 5.97747 25.4329 5.97665 25.4325C-1.7835 20.2168 6.26306 13.2392 10.2504 18.4848C12.2805 20.4891 12.2324 23.8605 12.2324 23.8605C16.2892 26.5152 16.107 33.3052 16.107 33.3052Z" stroke="black" stroke-width="2.46094" stroke-miterlimit="2.613" stroke-linecap="round" stroke-linejoin="round"/>
<path d="M38.2183 8.13445L38.2193 8.13328C38.2193 8.13328 36.6312 1.67168 29.1239 1.67168C21.6167 1.67168 20.6479 6.99937 20.6479 6.99937C20.6479 6.99937 8.25507 5.68277 7.07324 16.6332L7.07312 16.6343C8.18546 16.7114 9.32675 17.2698 10.2504 18.4848L10.2518 18.4862" stroke="black" stroke-width="2.46094" stroke-miterlimit="2.613" stroke-linecap="round" stroke-linejoin="round"/>
<path d="M28.6992 28.1772C31.1209 25.7858 37.165 24.5837 40.9185 27.6411" stroke="black" stroke-width="2.46094" stroke-miterlimit="2.613" stroke-linecap="round" stroke-linejoin="round"/>
<path d="M26.6175 34.3267C26.6175 34.3267 23.7299 24.7794 19.0076 23.6292" stroke="black" stroke-width="2.46094" stroke-miterlimit="2.613" stroke-linecap="round" stroke-linejoin="round"/>
<path d="M31.913 39.1728C29.4553 39.1688 26.3761 40.1186 25.6581 43.1382M34.9484 39.9313C34.9346 39.9181 34.9203 39.9052 34.9052 39.8924" stroke="black" stroke-width="2.46094" stroke-miterlimit="2.613" stroke-linecap="round" stroke-linejoin="round"/>
<path d="M20.6479 6.9995L21.8788 7.97766" stroke="black" stroke-width="2.46094" stroke-miterlimit="2.613" stroke-linecap="round" stroke-linejoin="round"/>
<path d="M37.6604 51.4681C39.453 51.4506 40.7992 51.8234 41.6543 52.6261" stroke="black" stroke-width="2.46094" stroke-miterlimit="2.613" stroke-linecap="round" stroke-linejoin="round"/>
<path d="M12.2324 23.8606C12.2324 23.8606 11.3981 26.6765 11.7497 30.1042" stroke="black" stroke-width="2.46094" stroke-miterlimit="2.613" stroke-linecap="round" stroke-linejoin="round"/>
<path d="M50.9194 13.7802C50.9194 13.7802 48.5614 13.7454 47.1927 15.0481" stroke="black" stroke-width="2.46094" stroke-miterlimit="2.613" stroke-linecap="round" stroke-linejoin="round"/>
<path d="M50.7174 44.441C50.7174 44.441 50.9303 40.8358 51.4577 39.869" stroke="black" stroke-width="2.46094" stroke-miterlimit="2.613" stroke-linecap="round" stroke-linejoin="round"/>
</g>
</g>
<defs>
<clipPath id="clip0_7_1255">
<rect width="60" height="60" fill="white" transform="translate(0 0.5)"/>
</clipPath>
</defs>
</svg>
