<svg viewBox="0 0 60 60" xmlns="http://www.w3.org/2000/svg" xmlns:xlink="http://www.w3.org/1999/xlink" width="60.000000" height="60.000000" fill="none">
	<rect id="Icon_Apple" width="60.000000" height="60.000000" x="0.000000" y="0.000000" fill="rgb(255,255,255)" fill-opacity="0" />
	<g id="Page-1">
		<g id="021---Apple">
			<path id="Shape" d="M56 34C56 52 45 59 38 59C33 59 31 57 30 57C29 57 27 59 22 59C15 59 4 52 4 34C4 18 13 14 22 14L22.01 14C24.7311 13.9438 27.4393 14.3878 30 15.31L30.01 15.31C32.5707 14.3878 35.2789 13.9438 38 14C47 14 56 18 56 34Z" fill="rgb(244,67,53)" fill-rule="nonzero" />
			<path id="Shape" d="M38 14C37.483 14 36.99 14.017 36.508 14.041C44.978 14.487 53 18.9 53 34C53 50.9 43.309 58.1 36.33 58.919C36.847 58.97 37.4 59 38 59C45 59 56 52 56 34C56 18 47 14 38 14Z" fill="rgb(200,30,30)" fill-rule="nonzero" />
			<path id="Shape" d="M33.05 16.9201C32.1048 16.2636 31.0841 15.7231 30.01 15.3101" fill="rgb(244,67,53)" fill-rule="nonzero" />
			<path id="Shape" d="M30 10.38L30 15.31C27.4393 14.3878 24.7311 13.9438 22.01 14L22 14C20.7758 13.5538 19.661 12.8515 18.73 11.94C14.99 8.11996 16.24 1.07996 16.24 1.07996C16.24 1.07996 23.56 0.239961 27.31 4.05996C28.8618 5.82325 29.805 8.03916 30 10.38Z" fill="rgb(96,169,23)" fill-rule="nonzero" />
			<path id="Shape" d="M27.31 4.06002C23.968 0.660023 17.81 0.952023 16.5 1.06002C18.934 1.23502 22.191 1.90502 24.31 4.06002C25.8618 5.82331 26.805 8.03922 27 10.38L27 14.463C28.0221 14.6602 29.0257 14.9436 30 15.31L30 10.38C29.805 8.03922 28.8618 5.82331 27.31 4.06002Z" fill="rgb(84,148,20)" fill-rule="nonzero" />
			<path id="Shape" d="M8.23302 31C8.19088 31.0003 8.14877 30.9977 8.10702 30.992C7.84376 30.9591 7.60438 30.8228 7.44159 30.6133C7.27879 30.4038 7.20592 30.1382 7.23902 29.875C8.32702 21.211 13.155 17 22 17C22.5523 17 23 17.4477 23 18C23 18.5523 22.5523 19 22 19C14.236 19 10.176 22.535 9.22402 30.125C9.16108 30.6246 8.73653 30.9994 8.23302 31Z" fill="rgb(245,245,245)" fill-rule="nonzero" />
			<path id="Oval" d="M8 35C8.55229 35 9 34.5523 9 34C9 33.4477 8.55229 33 8 33C7.44772 33 7 33.4477 7 34C7 34.5523 7.44772 35 8 35Z" fill="rgb(245,245,245)" fill-rule="evenodd" />
			<path id="Shape" d="M3 34.0001C3 52.9411 14.654 60.0001 22 60.0001C24.4824 60.0404 26.9374 59.4773 29.154 58.3591C29.4225 58.2214 29.6998 58.1015 29.984 58.0001C30.2814 58.0939 30.5699 58.2141 30.846 58.3591C33.0626 59.4773 35.5176 60.0404 38 60.0001C45.346 60.0001 57 52.9411 57 34.0001C57 16.6431 46.667 13.0001 38 13.0001C35.6334 12.9774 33.2759 13.2957 31 13.9451L31 9.00008C31 7.11908 31 3.61808 34.447 1.90008C34.7668 1.74038 34.977 1.42223 34.9986 1.06546C35.0202 0.7087 34.8498 0.367528 34.5516 0.170463C34.2534 -0.0266023 33.8728 -0.0496216 33.553 0.110076C31.4782 1.1092 29.9575 2.98223 29.406 5.21808C29.0245 4.5446 28.5598 3.92172 28.023 3.36408C23.978 -0.760924 16.444 0.0490761 16.126 0.0860761C15.6869 0.136769 15.3331 0.469788 15.256 0.905076C15.201 1.21308 13.962 8.50508 18.019 12.6441C18.212 12.8381 18.419 13.0201 18.637 13.1981C10.872 14.1491 3 18.8501 3 34.0001ZM17.129 2.02108C19.018 1.94008 23.913 2.02708 26.595 4.75908C27.9945 6.34626 28.8387 8.34618 29 10.4561L29 13.9401C26.7951 13.3152 24.5137 13.0015 22.222 13.0081C21.1847 12.6152 20.2392 12.0134 19.444 11.2401C16.8 8.53608 16.95 3.85508 17.129 2.02108ZM22 15.0001C24.5894 14.9487 27.1667 15.3654 29.608 16.2301L29.618 16.2301L29.648 16.2401C30.6468 16.6255 31.5959 17.1291 32.475 17.7401C32.767 17.9524 33.1508 17.9907 33.4791 17.8405C33.8074 17.6902 34.0292 17.3747 34.0594 17.0149C34.0897 16.6551 33.9236 16.307 33.625 16.1041C33.344 15.9041 33.051 15.7171 32.749 15.5371C34.4744 15.1665 36.2353 14.9864 38 15.0001C49.28 15.0001 55 21.3931 55 34.0001C55 51.4841 44.573 58.0001 38 58.0001C35.813 58.0406 33.6496 57.543 31.7 56.5511C31.1798 56.2467 30.5998 56.0587 30 56.0001C29.4002 56.0587 28.8202 56.2467 28.3 56.5511C26.3504 57.543 24.187 58.0406 22 58.0001C15.427 58.0001 5 51.4841 5 34.0001C5 21.3931 10.72 15.0001 22 15.0001Z" fill="rgb(0,0,0)" fill-rule="nonzero" />
		</g>
	</g>
</svg>
